<?xml version="1.0" encoding="utf-8"?>
<!-- Generator: Adobe Illustrator 24.0.0, SVG Export Plug-In . SVG Version: 6.00 Build 0)  -->
<svg version="1.1" id="Layer_1" xmlns="http://www.w3.org/2000/svg" xmlns:xlink="http://www.w3.org/1999/xlink" x="0px" y="0px"
	 viewBox="0 0 1000 1000" style="enable-background:new 0 0 1000 1000;" xml:space="preserve">
<style type="text/css">
	.st0{fill:#009245;}
	.st1{fill:#FFFFFF;}
	.st2{fill:none;stroke:#FFFFFF;stroke-miterlimit:10;}
	.st3{clip-path:url(#SVGID_2_);}
	.st4{fill:none;}
</style>
<rect class="st0" width="1000" height="1000"/>
<g>
	<g>
		<path class="st1" d="M122.8,92.5h7.7l23.1,57h-6.9l-5.9-14.5h-28.2l-5.9,14.5h-6.9L122.8,92.5z M138.3,128.9l-11.7-28.8L115,128.9
			H138.3z"/>
		<path class="st1" d="M163.9,149.5v-57h24.7c4.9,0,8.9,1.6,12.1,4.9s4.7,7.4,4.7,12.5c0,5-1.6,9.1-4.7,12.4
			c-3.1,3.3-7.2,4.9-12.1,4.9h-17.9v22.4L163.9,149.5L163.9,149.5z M188.6,98.6h-17.9v22.5h17.9c2.9,0,5.4-1.1,7.3-3.2
			s2.9-4.8,2.9-8c0-3.3-0.9-6-2.9-8.1C193.9,99.6,191.5,98.6,188.6,98.6z"/>
		<path class="st1" d="M229.6,92.5h7.7l23.1,57h-6.9l-5.9-14.5h-28.2l-5.9,14.5h-6.9L229.6,92.5z M245,128.9l-11.6-28.8l-11.6,28.8
			H245z"/>
		<path class="st1" d="M274.5,92.5v37.3c0,4,1.6,7.3,4.7,9.9c3.1,2.6,7.2,3.9,12.1,3.9c4.8,0,8.8-1.3,12-3.9s4.8-5.9,4.8-9.9V92.5
			h6.8v37.2c0,5.9-2.2,10.8-6.7,14.6c-4.5,3.8-10.1,5.7-16.9,5.7c-6.8,0-12.5-1.9-16.9-5.7c-4.4-3.8-6.6-8.7-6.6-14.6V92.5H274.5z"
			/>
		<path class="st1" d="M329.8,149.5v-57h6.8v57L329.8,149.5L329.8,149.5z"/>
	</g>
	<rect x="56.5" y="56.5" class="st2" width="328.5" height="136.7"/>
</g>
<g>
	<g>
		<defs>
			<rect id="SVGID_1_" x="56" y="56" width="888" height="888"/>
		</defs>
		<clipPath id="SVGID_2_">
			<use xlink:href="#SVGID_1_"  style="overflow:visible;"/>
		</clipPath>
		<g class="st3">
			<g>
				<g>
					<path class="st1" d="M833.5,287.4c10.1,10.1,10.1,26.6,0,36.7s-26.6,10.1-36.7,0s-10.1-26.6,0-36.7
						C806.9,277.2,823.3,277.2,833.5,287.4"/>
					<path class="st1" d="M755.6,287.4c10.1,10.1,10.1,26.6,0,36.7s-26.6,10.1-36.7,0s-10.1-26.6,0-36.7S745.5,277.2,755.6,287.4"/>
					<path class="st1" d="M709.3,162.9l-6.5-38.9h-43.4v26h21.5l19.5,116.8h136.8l29.9-80.4v-23.4L709.3,162.9z"/>
				</g>
			</g>
			<g>
				<g>
					<g>
						<path class="st1" d="M523,662.9l1.3-0.2l1.2-0.2l2.3-0.5c1.5-0.3,3-0.6,4.5-1c3-0.7,5.9-1.4,8.8-2.2
							c5.8-1.6,11.5-3.3,17.2-5.2c11.3-3.8,22.5-8.2,33.3-13.2c21.7-10,42.4-22.4,61.3-37.2c9.4-7.4,18.4-15.4,26.9-24
							c8.4-8.6,16.3-17.7,23.6-27.3c14.5-19.2,26.3-40.5,35.2-62.8l1.7-4.2c0.6-1.4,1-2.8,1.5-4.2c1-2.8,2.1-5.6,3-8.5l1.7-5.4
							l1.8-6.2l0.9-3.1l0.8-3.1l1.6-6.3c1.9-8.4,3.8-16.9,5-25.4c10.5,14.9,20,31.1,28.1,48.8l1.1-3.8l1-3.8c0.6-2.5,1.3-5,1.9-7.5
							c1.1-5,2.3-10.1,3.3-15.1c-12.1-20.9-26-39.6-40.8-56.3c-16.8,14.9-34.4,27.9-52.6,38.1c-0.7,3.8-1.6,7.5-2.4,11.2l-1.4,5.5
							l-0.7,2.8l-0.8,2.7c15.2-6.7,30.1-15.4,44.6-25.5c-1.2,8.1-2.9,16-4.8,24l-1.5,5.9l-0.8,3l-0.8,2.9l-1.7,5.9l-1.6,5
							c-0.8,2.7-1.8,5.3-2.8,8c-0.5,1.3-0.9,2.6-1.5,4l-1.5,3.9c-8.3,20.8-19.3,40.5-32.7,58.4c-6.7,8.9-14.1,17.4-21.9,25.4
							c-7.9,8-16.3,15.4-25.1,22.3c-17.7,13.8-37.1,25.5-57.5,34.9c-10.2,4.7-20.7,8.9-31.4,12.5c-5.3,1.8-10.7,3.4-16.1,4.9
							c-2.7,0.7-5.4,1.4-8.1,2c-1.3,0.3-2.7,0.6-4,0.9l-2,0.4l-1.8,0.3L523,662.9z"/>
					</g>
				</g>
			</g>
			<g>
				<path class="st1" d="M611.3,674.3l4.9,22.8c0.5,2.5,1.9,4.3,4.2,5.5s4.9,1.4,7.9,0.8c3-0.6,5.2-2,6.8-4c1.6-2,2.1-4.2,1.6-6.7
					l-4.9-22.8l4.1-0.9l4.9,22.7c0.8,3.6,0.1,6.9-2.2,9.8c-2.2,2.9-5.4,4.8-9.5,5.7c-4.2,0.9-7.9,0.5-11.1-1.3c-3.2-1.8-5.2-4.4-6-8
					l-4.9-22.7L611.3,674.3z"/>
				<path class="st1" d="M646.2,676.5l3.8-1.3l1.2,3.5c1.3-3.3,3.7-5.5,7.2-6.7c3.3-1.1,6.5-0.9,9.4,0.7c3,1.6,5,4.2,6.3,7.8
					c1.2,3.6,1.1,6.9-0.3,10s-3.7,5.2-7,6.3c-3.5,1.2-6.7,0.9-9.8-0.9l4.9,14.6l-3.8,1.3L646.2,676.5z M654.1,687.3
					c0.9,2.5,2.3,4.4,4.4,5.5c2.1,1.1,4.3,1.3,6.6,0.5c2.3-0.8,4-2.3,5-4.4c1-2.2,1-4.5,0.2-7c-0.9-2.6-2.3-4.4-4.4-5.6
					c-2.1-1.1-4.3-1.3-6.6-0.5c-2.3,0.8-4,2.3-5,4.5S653.3,684.8,654.1,687.3z"/>
				<path class="st1" d="M686.2,689.1l-14.6-34.2l3.7-1.6l14.6,34.2L686.2,689.1z"/>
				<path class="st1" d="M692,672.8c-1.8-3.4-2.2-6.7-1.3-10s3-5.8,6.2-7.5c3.2-1.7,6.4-2,9.7-1s5.8,3.3,7.5,6.6
					c1.8,3.4,2.2,6.7,1.2,9.9c-0.9,3.3-3,5.8-6.2,7.5s-6.4,2-9.7,1C696.3,678.4,693.8,676.2,692,672.8z M695.5,670.9
					c1.3,2.4,3,4,5.3,4.8s4.5,0.6,6.7-0.5c2.2-1.2,3.6-2.9,4.2-5.2s0.3-4.7-1-7c-1.3-2.4-3-3.9-5.2-4.7c-2.2-0.8-4.5-0.6-6.6,0.6
					c-2.2,1.2-3.6,2.9-4.2,5.2C694,666.2,694.3,668.5,695.5,670.9z"/>
				<path class="st1" d="M722,655.6c0.7-2.2,2.4-4.3,5.1-6.2l6.2-4.4l-1.1-1.5c-0.9-1.3-2.1-1.9-3.7-1.9s-3.3,0.7-5.2,2
					c-2.5,1.8-3.9,3.9-4.2,6.3l-3.9-0.7c0.5-3.4,2.4-6.3,5.9-8.8c2.9-2.1,5.7-3.1,8.2-3c2.5,0.1,4.6,1.3,6.1,3.5l9.9,14l-3.3,2.3
					l-1.2-1.8c-0.8,2.6-2.6,4.9-5.5,6.9c-2.5,1.7-4.8,2.6-7,2.5c-2.2-0.1-4-1.1-5.3-3.1C721.7,660,721.3,657.9,722,655.6z
					 M726.2,659.4c0.7,1,1.8,1.5,3.2,1.5s2.9-0.7,4.5-1.8c1.9-1.3,3.2-2.8,3.8-4.3c0.6-1.5,0.6-2.8-0.2-4l-2-2.8l-6.3,4.5
					c-1.6,1.2-2.7,2.4-3.2,3.6C725.4,657.3,725.5,658.4,726.2,659.4z"/>
				<path class="st1" d="M753.7,644.1c-3.4-0.2-6.3-1.7-9-4.4s-3.9-5.8-4-9.2c0-3.4,1.3-6.3,3.8-8.7c2.6-2.5,5.7-3.6,9.3-3.2
					l-10.6-11.2l2.9-2.8l25.5,27l-2.9,2.8l-2.5-2.7c0.1,3.6-1.1,6.6-3.8,9.1C760,643.2,757,644.3,753.7,644.1z M753.8,621.9
					c-2.4-0.1-4.5,0.6-6.3,2.3s-2.7,3.7-2.7,6.1s1,4.5,2.8,6.5c1.8,2,4,3,6.3,3.2c2.4,0.2,4.5-0.6,6.3-2.3c1.8-1.7,2.7-3.8,2.6-6.1
					s-1-4.6-2.8-6.5C758.2,623.1,756.1,622.1,753.8,621.9z"/>
				<path class="st1" d="M790.7,609.8L769,596.5l2.1-3.4l2.3,1.4c-0.7-2.8-0.3-5.5,1.3-8.1c0.9-1.5,2.1-2.7,3.5-3.5s2.9-1.3,4.4-1.3
					c-1.3-3.3-1-6.5,1-9.7c1.5-2.4,3.4-4,5.8-4.6c2.4-0.7,4.7-0.4,6.9,1l14.4,8.8l-2.1,3.4l-14.4-8.9c-1.2-0.8-2.6-0.9-4-0.4
					c-1.4,0.5-2.6,1.4-3.5,2.9c-1.1,1.8-1.4,3.6-0.8,5.5c0.5,1.9,1.7,3.5,3.6,4.6l12.2,7.5l-2.1,3.4l-14.4-8.9
					c-1.2-0.8-2.6-0.9-4-0.4c-1.4,0.5-2.6,1.4-3.5,2.9c-1.1,1.8-1.4,3.7-0.9,5.5c0.5,1.9,1.7,3.4,3.6,4.6l12.2,7.5L790.7,609.8z"/>
				<path class="st1" d="M795.8,555.7c-1.4-3-1.5-6.2-0.2-9.5c1.3-3.3,3.5-5.5,6.7-6.8c3.2-1.2,6.6-1.2,10.2,0.3
					c0.4,0.2,0.7,0.3,1,0.4l-7.5,19c2.2,0.6,4.3,0.4,6.4-0.7s3.5-2.8,4.5-5.1c1.1-2.8,1-5.3-0.2-7.5l3.5-1.9
					c1.7,3.2,1.8,6.8,0.2,10.8c-1.5,3.7-3.8,6.2-7,7.7c-3.2,1.4-6.6,1.5-10.2,0C799.7,561,797.2,558.8,795.8,555.7z M802.7,557.6
					l5.9-15c-2.1-0.4-4-0.2-5.7,0.7s-3,2.3-3.7,4.2c-0.8,1.9-0.8,3.8-0.2,5.6C799.6,555,800.8,556.5,802.7,557.6z"/>
				<path class="st1" d="M824.2,532.5c-3,1.6-6.3,2-9.9,1c-3.7-1-6.4-2.8-8.2-5.7c-1.8-2.8-2.3-6-1.4-9.4c0.9-3.5,3-6.1,6.1-7.7
					l-14.9-3.9l1-3.9l36,9.3l-1,3.9l-3.5-0.9c2,2.9,2.5,6.2,1.6,9.7C829.1,528.5,827.2,531,824.2,532.5z M812.5,513.7
					c-2.1,1.1-3.4,2.9-4.1,5.3s-0.3,4.6,1,6.6c1.3,2,3.2,3.3,5.8,4c2.6,0.7,5,0.5,7.1-0.7s3.5-2.9,4.1-5.3s0.3-4.6-1-6.6
					c-1.3-2-3.3-3.3-5.8-4C816.9,512.4,814.6,512.6,812.5,513.7z"/>
				<path class="st1" d="M801.3,497.3c-0.9-0.2-1.6-0.6-2-1.2s-0.6-1.4-0.5-2.3c0.2-0.9,0.6-1.6,1.2-2c0.7-0.5,1.4-0.6,2.3-0.4
					c0.9,0.1,1.5,0.6,2,1.2c0.5,0.6,0.6,1.4,0.4,2.3c-0.2,0.9-0.6,1.5-1.2,2S802.2,497.5,801.3,497.3z M834.7,502.2l-25.1-4.5l0.7-4
					l25.1,4.5L834.7,502.2z"/>
				<path class="st1" d="M824.3,485.4c-1.2-2-1.6-4.6-1.2-7.9l0.8-7.6l-1.9-0.2c-1.5-0.2-2.8,0.3-3.8,1.5c-1,1.2-1.6,2.9-1.9,5.2
					c-0.3,3.1,0.3,5.5,2,7.4l-3.1,2.5c-2.2-2.6-3.1-6-2.7-10.2c0.4-3.6,1.5-6.3,3.2-8.1c1.7-1.8,4-2.6,6.7-2.3l17,1.9l-0.4,4
					l-2.1-0.2c1.4,2.3,1.9,5.2,1.5,8.7c-0.3,3-1.3,5.3-2.8,6.9c-1.5,1.6-3.5,2.2-5.8,2C827.3,488.6,825.5,487.4,824.3,485.4z
					 M829.9,484.8c1.3,0.1,2.3-0.3,3.2-1.4c0.8-1.1,1.4-2.6,1.6-4.6c0.3-2.3,0-4.2-0.7-5.7c-0.7-1.5-1.8-2.3-3.1-2.5l-3.4-0.4
					l-0.8,7.7c-0.2,2,0,3.6,0.6,4.8C827.7,484,828.7,484.7,829.9,484.8z"/>
			</g>
			<polygon class="st4" points="56,573.8 56,513.6 39.3,581.2 			"/>
			<path class="st4" d="M232.9,946c1.2-0.5,2.2-1.2,3.2-2h-17.9C222.3,947.2,227.9,948.2,232.9,946z"/>
			<polygon class="st1" points="104.7,665.6 56,687 56,807 60.2,809.3 71,755.4 148.8,802.3 56,843.2 56,881.1 176.3,828 			"/>
			<polygon class="st1" points="171.3,781.2 195.5,770.5 125.6,611.8 56,642.4 56,671.4 112,646.8 			"/>
			<path class="st1" d="M167.3,638l71.6,162.5l162.5-71.6l-71.6-162.5L167.3,638z M233.9,676.2c-7.2,3.2-15.6-0.1-18.8-7.3
				c-3.2-7.2,0.1-15.6,7.3-18.8c7.2-3.2,15.6,0.1,18.8,7.3S241.1,673,233.9,676.2z M239.1,762.4l16.9-68.3l29.3,15.9l10.8-53.9
				l77.8,46.9L239.1,762.4z"/>
			<polygon class="st1" points="337,547.5 396.3,682 420.6,671.3 350.6,512.6 191.9,582.5 202.6,606.8 			"/>
			<polygon class="st1" points="84.2,944 107.5,944 103.7,935.4 			"/>
			<polygon class="st1" points="56,911.8 56,940.8 111,916.6 123.1,944 152.1,944 124.6,881.6 			"/>
			<path class="st1" d="M166.3,907.8l16,36.2h36c-1.7-1.4-3.1-3.2-4.1-5.3c-3.2-7.2,0.1-15.6,7.3-18.8c7.2-3.2,15.6,0.1,18.8,7.3
				c2.7,6,0.8,12.9-4.1,16.8h55.4l3.6-18l29.9,18h51.3l-47.5-107.8L166.3,907.8z"/>
			<polygon class="st1" points="349.6,782.4 190.9,852.3 201.6,876.6 336.1,817.4 391.9,944 413.1,944 419.6,941.1 			"/>
			<polygon class="st1" points="129.9,385.1 56,417.7 56,513.6 56.2,512.8 85.4,528.8 96.3,474.9 174.1,521.8 56,573.8 56,611.7 
				201.5,547.5 			"/>
			<polygon class="st1" points="196.5,500.7 220.8,490 150.8,331.3 56,373.1 56,402.1 137.2,366.3 			"/>
			<path class="st1" d="M554.3,736.8l-162.5,71.6L451.6,944h72.7l101.6-44.8L554.3,736.8z M458.5,846.5c-7.2,3.2-15.6-0.1-18.8-7.3
				c-3.2-7.2,0.1-15.6,7.3-18.8s15.6,0.1,18.8,7.3C468.9,835,465.7,843.4,458.5,846.5z M480.6,864.5l29.3,15.9l10.8-53.9l77.8,46.9
				l-134.8,59.4L480.6,864.5z"/>
			<polygon class="st1" points="416.5,752.9 427.2,777.2 561.6,717.9 620.9,852.4 645.2,841.7 575.2,683 			"/>
		</g>
	</g>
</g>
</svg>
